<svg viewBox="0 0 1024 1024" xmlns="http://www.w3.org/2000/svg">
  <path d="M146.774 512C146.774 310.291 310.291 146.774 512 146.774C713.709 146.774 877.226 310.291 877.226 512C877.226 713.709 713.709 877.226 512 877.226C310.291 877.226 146.774 713.709 146.774 512Z" fill="none" stroke="currentColor" stroke-linecap="round" stroke-linejoin="round" stroke-width="73.0453"/>
  <path d="M292.864 512C292.864 390.975 390.975 292.864 512 292.864C633.025 292.864 731.136 390.975 731.136 512C731.136 633.025 633.025 731.136 512 731.136C390.975 731.136 292.864 633.025 292.864 512Z" fill="none" stroke="currentColor" stroke-linecap="round" stroke-linejoin="round" stroke-width="73.0453"/>
  <path d="M438.955 512C438.955 471.658 471.658 438.955 512 438.955C552.342 438.955 585.045 471.658 585.045 512C585.045 552.342 552.342 585.045 512 585.045C471.658 585.045 438.955 552.342 438.955 512Z" fill="none" stroke="currentColor" stroke-linecap="round" stroke-linejoin="round" stroke-width="73.0453"/>
</svg>
